<?xml version="1.0" encoding="utf-8"?>
<!-- Generator: Adobe Illustrator 21.0.2, SVG Export Plug-In . SVG Version: 6.00 Build 0)  -->
<svg version="1.1" xmlns="http://www.w3.org/2000/svg" xmlns:xlink="http://www.w3.org/1999/xlink" x="0px" y="0px"
	 viewBox="0 0 800 400" style="enable-background:new 0 0 800 400;" xml:space="preserve">
<style type="text/css">
	.st0{display:none;}
	.st1{display:inline;fill:none;stroke:#231F20;stroke-miterlimit:10;}
	.st2{display:inline;fill:#231F20;}
	.st3{display:inline;}
	.st4{fill:#231F20;}
	.st5{fill:#222222;}
	.st6{fill:#333333;}
	.st7{display:inline;fill:#EEEEEE;}
	.st8{display:inline;fill:#FFFFFF;}
	.st9{display:inline;fill:#DDDDDD;}
</style>
<g id="Layer_2" class="st0">
	<circle class="st1" cx="400" cy="200" r="400"/>
</g>
<g id="Layer_1" class="st0">
	<rect x="-32" y="276" class="st2" width="80" height="80"/>
	<rect x="-32" y="356" class="st2" width="80" height="80"/>
	<rect x="128" y="276" class="st2" width="80" height="80"/>
	<rect x="288" y="276" class="st2" width="80" height="80"/>
	<rect x="688" y="276" class="st2" width="80" height="80"/>
	<rect x="448" y="276" class="st2" width="80" height="80"/>
	<rect x="128" y="356" class="st2" width="80" height="80"/>
	<rect x="288" y="356" class="st2" width="80" height="80"/>
	<rect x="688" y="356" class="st2" width="80" height="80"/>
	<rect x="448" y="356" class="st2" width="80" height="80"/>
	<rect x="-32" y="36" class="st2" width="80" height="80"/>
	<rect x="128" y="36" class="st2" width="80" height="80"/>
	<rect x="288" y="36" class="st2" width="80" height="80"/>
	<rect x="688" y="36" class="st2" width="80" height="80"/>
	<rect x="448" y="36" class="st2" width="80" height="80"/>
	<rect x="-32" y="-44" class="st2" width="80" height="80"/>
	<rect x="128" y="-44" class="st2" width="80" height="80"/>
	<rect x="288" y="-44" class="st2" width="80" height="80"/>
	<rect x="688" y="-44" class="st2" width="80" height="80"/>
	<rect x="448" y="-44" class="st2" width="80" height="80"/>
	<rect x="-32" y="196" class="st2" width="80" height="80"/>
	<rect x="128" y="196" class="st2" width="80" height="80"/>
	<rect x="288" y="196" class="st2" width="80" height="80"/>
	<rect x="688" y="196" class="st2" width="80" height="80"/>
	<rect x="448" y="196" class="st2" width="80" height="80"/>
	<rect x="-32" y="116" class="st2" width="80" height="80"/>
	<rect x="128" y="116" class="st2" width="80" height="80"/>
	<rect x="288" y="116" class="st2" width="80" height="80"/>
	<rect x="688" y="116" class="st2" width="80" height="80"/>
	<rect x="448" y="116" class="st2" width="80" height="80"/>
</g>
<g id="Layer_3" class="st0">
	<g class="st3">
		<g>
			<path class="st4" d="M491,433.5c11.1,0,22.2,0,33.3-0.1c1.4,0,2.4-1.1,2.5-2.5c7.2-80.4,9.2-161.1,6.1-241.7
				c0-1.1-0.7-2.2-1.8-2.4c-27.1-6.1-55-6.2-82.2-0.3c1.1,0.8,2.1,1.6,3.2,2.4c0.7-17.8,3.8-35.5,9.4-52.4c1.4-4.1,2.9-8.2,4.6-12.2
				c2.2-5.2,4-10.4,10.6-10.3c8.7,0.1,17.5,1.4,26.2,1.9c29.3,1.6,58.6,0.6,87.9,0.8c18.8,0.2,37.5,1.1,56.2,2.8
				c-0.8-0.8-1.7-1.7-2.5-2.5c0.4,11.1,4.1,22.3,6.4,33.1c1.4,6.6,2.9,13.3,3.8,20.1c0.6,4.5,1.4,9.7-0.1,14.1
				c0.8-0.6,1.6-1.2,2.4-1.8c-8,0.2-13.6-2.4-20.4-6c-5.2-2.8-10.4-3.9-16.2-3c-7.2,1.1-16.1,3.9-19.2,11.2
				c-3.6,8.5-0.2,19.7,1,28.5c6.2,46.8,9.6,93.9,10.3,141c0.4,26.8-0.1,53.5-1.5,80.2c-0.1,1.4,1.2,2.5,2.5,2.5
				c38,0.3,76.1,0.4,114.1,0.5c8.7,0,17.5,0.1,26.2,0.1c6.8,0,17.2,1.8,23.3-1.3c4-2,5.6-6.1,6.2-10.3c1.1-8.1,0.6-16.6,0.8-24.7
				c0.3-15.6,0.6-31.2,0.7-46.8c0.4-63.7-1-127.5-4.3-191.1c-1.4-26.3-4.2-52.7-4.9-79c-0.4-14.7-0.7-29.4-1.5-44.1
				c-0.3-6.7-0.7-13.5-1.6-20.2c-0.4-3.3-0.6-7.4-4-8.9c-4-1.8-9.7-1.4-14-1.7c-7.7-0.5-15.4-0.8-23.2-1.1
				c-12.5-0.4-25.3,0.1-37.7-1.7c-30.6-4.3-61.5-5.2-92.3-5.6C473.7-0.5,346-3.2,218.3-4.6C89.4-6-39.4-7.4-168.3-7.4
				c-15.5,0-31.1,0-46.6,0c-1.4,0-2.4,1.1-2.5,2.5c-12.1,130.4-20.7,261.1-25.9,392c-1.4,36.6-2.6,73.2-3.5,109.9
				c-0.1,3.2,4.9,3.2,5,0c3.2-130.9,9.9-261.7,20-392.3c2.8-36.5,6-73,9.4-109.5c-0.8,0.8-1.7,1.7-2.5,2.5
				C-89.6-2.6,35.7-1.5,161-0.2c125.4,1.3,250.8,2.4,376.1,5.4c30.3,0.7,60.7,0.6,91.1,1.5c15.1,0.5,30.3,1.3,45.4,2.7
				c9,0.9,18,2.7,27,3c14.2,0.6,28.3,0.8,42.5,1.4c6.6,0.3,13.2,0.5,19.7,1.3c1.1,0.1,3.6,0.4,4.1,0.7c-0.8-0.5-0.2-0.5-0.2,0.3
				c0.1,0.9,0.4,1.9,0.6,2.8c2.5,14.3,2.2,29.3,2.7,43.8c0.4,14.7,1,29.2,2,43.8c4.3,62.2,6.9,124.6,7.6,187
				c0.4,31.2,0.3,62.4-0.2,93.6c-0.1,7.8-0.3,15.6-0.5,23.4c-0.1,5.8,1.9,19.3-5.1,21.8c-3.5,1.2-8.4,0.4-12.1,0.4
				c-3.7,0-7.3,0-11-0.1c-38.8-0.2-77.7-0.3-116.5-0.5c-6.9,0-13.9-0.1-20.8-0.1c0.8,0.8,1.7,1.7,2.5,2.5
				c2.3-44.1,2.2-88.3-0.3-132.4c-1.3-22-3.1-44-5.6-66c-1.1-10.2-2.4-20.4-3.8-30.5c-0.7-4.7-1.8-9.7-1.4-14.5
				c0.6-7,5.6-9.8,11.8-11.6c7.6-2.2,13.2-1.1,19.9,2.7c6.5,3.6,13,5.5,20.5,5.3c1.2,0,2-0.8,2.4-1.8c1.5-4.2,1-9,0.5-13.4
				c-0.7-6.7-2-13.3-3.4-19.8c-2.4-11.6-6.6-23.6-7.1-35.5c-0.1-1.4-1.1-2.4-2.5-2.5c-33.2-3-66.3-2.7-99.6-2.6
				c-17,0.1-34-0.3-50.9-1.4c-4.5-0.3-9-0.6-13.4-1c-4.1-0.4-8.6-1.3-12.5,0.4c-6.2,2.6-8.5,10.8-10.7,16.5
				c-7.8,19.9-12,41.1-12.8,62.5c-0.1,1.7,1.6,2.7,3.2,2.4c26.2-5.8,53.3-5.7,79.5,0.3c-0.6-0.8-1.2-1.6-1.8-2.4
				c3.1,80.6,1.1,161.4-6.1,241.7c0.8-0.8,1.7-1.7,2.5-2.5c-11.1,0-22.2,0-33.3,0.1C487.8,428.5,487.8,433.5,491,433.5L491,433.5z"
				/>
		</g>
	</g>
	<g class="st3">
		<g>
			<path class="st4" d="M489.1,427c2.6-68-0.3-136.2-8.8-203.7c-0.2-1.4-1-2.4-2.5-2.5c-31.4-1.7-62.9,0.4-93.8,6.2
				c1.1,0.8,2.1,1.6,3.2,2.4c2.6-45.6,8.1-91,16.4-135.8c-0.6,0.6-1.2,1.2-1.7,1.7c54.1-7.7,108.7-12,163.3-12.8
				c27.4-0.4,54.9,0,82.3,1.3c6.5,0.3,13,0.7,19.6,1.1c5.8,0.4,12.6,0,18.2,1.8c7.4,2.4,5.9,10.1,5.6,16.2
				c-0.4,7.3-0.8,14.5-1.2,21.8c-1.7,31.1-3.4,62.1-5.1,93.2c0.8-0.8,1.7-1.7,2.5-2.5c-10.2,0.4-20.4,0.7-30.6,1.1
				c-8,0.3-11.9,2.7-12.5,10.9c-1.5,21.2-1.7,42.6-2.6,63.8c-1.7,42.6-3.5,85.1-5.2,127.7c-0.1,1.8,1.6,2.6,3.2,2.4
				c16.8-2.5,33.7-5.7,50.7-6.3c9.5-0.3,20.5,2.6,29.6-1.3c10.8-4.6,15.8-17.7,17.4-28.5c2.2-14.6,0.1-29.8-0.5-44.4
				c-2.7-64.7,0.8-129.5-4.5-194c-2.9-35.5-8.6-70.9-19.1-105c-0.3-1.1-1.3-1.8-2.4-1.8c-101.9-5-204-7-306-8.2
				C302.4,30.4,200.2,29.2,98,29.5C47,29.6-4,30.2-54.9,31.8c-22.5,0.7-45.2,1.3-67.6,3.9c-10.9,1.3-20.2,4.4-24.3,15.4
				c-3.1,8.2-3.4,17.4-4.3,26c-1.3,12.4-2.4,24.7-3.4,37.1c-2.1,25.1-3.7,50.2-5.5,75.3c-3.5,50.5-6.4,100.9-8.5,151.5
				c-0.7,16.3-1.8,32.1-3.9,48.3c-1.9,15-4,30.3-3.4,45.4c0.4,10.8,2.5,20.9,13.8,24.7c13.4,4.6,29.5,1.7,43-0.7
				c6.2-1.1,12.4-2.5,18.6-3.9c3.1-0.7,1.8-5.5-1.3-4.8c-13.7,3.1-27.5,6.1-41.6,6.5c-6.5,0.2-13.7,0.1-19.6-2.9
				c-4.8-2.4-6.3-6.6-7.2-11.6c-2.3-14-0.1-29.1,1.6-43.1c1.5-12.7,3.7-25.4,4.2-38.2c1.9-48.9,4.5-97.7,7.7-146.6
				c3.2-48.7,6.1-97.4,11.4-145.9c0.7-6.6,1.4-14.5,5.4-20.2c3-4.4,8-5.9,13-6.9c8.1-1.5,16.6-1.8,24.9-2.3
				c12.4-0.8,24.8-1.4,37.2-1.9c48.9-1.8,97.9-2.3,146.8-2.6c98.9-0.5,197.8,0.7,296.6,1.8c98.7,1.1,197.5,2.7,296.1,6.9
				c11.9,0.5,23.8,1,35.7,1.6c-0.8-0.6-1.6-1.2-2.4-1.8c18.3,59.1,21.4,121.2,22,182.7c0.3,31.2,0,62.4,0.7,93.6
				c0.3,14.8,1.2,29.5,1.9,44.2c0.7,14,0.8,31.6-10.1,42.2c-8.3,8.1-22.3,3.9-32.6,4.2c-17.5,0.6-34.8,3.9-52,6.5
				c1.1,0.8,2.1,1.6,3.2,2.4c1.6-38.6,3.2-77.1,4.7-115.7c0.8-19.3,1.6-38.6,2.4-57.8c0.2-4.7,0.4-9.3,0.6-14
				c0.1-3.2-0.1-4.9,1.7-7.5c0.6-2,2-2.8,4-2.3c1.3,0,2.5-0.1,3.8-0.1c9.5-0.4,19.1-0.7,28.6-1.1c1.4-0.1,2.4-1.1,2.5-2.5
				c1.6-29.4,3.2-58.8,4.8-88.2c0.4-6.9,0.8-13.9,1.1-20.8c0.3-6,1.8-13.2-0.2-19.1c-3.5-10.4-17.7-9.3-26.3-9.8
				c-57.3-3.7-114.9-3.5-172.3,0.4c-32.2,2.2-64.2,5.6-96.1,10.1c-0.8,0.1-1.6,1-1.7,1.7c-8.4,45.3-13.9,91.2-16.6,137.2
				c-0.1,1.7,1.7,2.7,3.2,2.4c30.5-5.7,61.5-7.6,92.5-6c-0.8-0.8-1.7-1.7-2.5-2.5c8.4,67.5,11.4,135.7,8.8,203.7
				C484,430.2,489,430.2,489.1,427L489.1,427z"/>
		</g>
	</g>
	<g class="st3">
		<g>
			<path class="st4" d="M289.8,433.1c-0.1-50.3-0.2-100.6-0.2-150.9c0-25-0.1-50-0.1-74.9c0-12.7,0-25.3-0.1-38
				c0-5.8,0.1-11.7,0-17.5c-0.1-4.1-0.8-8.3-3.9-11.3c-6.4-6-18.8-4.1-26.7-4.2c-12.3-0.1-24.5-0.1-36.8,0.1
				c-12.6,0.2-25.2,0.6-37.7,1.2c-8.2,0.4-17.5,0.2-18.9,10.3c-0.7,5.4-0.2,11-0.1,16.4c0.1,6.6,0.1,13.3,0.2,19.9
				c0.1,12.3,0.2,24.5,0.4,36.8c0.3,24.8,0.5,49.7,0.8,74.5c0.3,27.8,0.6,55.7,0.8,83.5c0.1,7.3,0.1,14.6,0.2,21.9
				c0.1,5.4,2.3,17.4-3,20.5c-2.8,1.7-7.1,1-10.3,1c-3.3,0-6.5,0-9.8-0.1c-7.2,0-14.4-0.1-21.6-0.1c-3.2,0-3.2,5,0,5
				c12,0.1,24.1,0.4,36.1,0.2c8.7-0.1,13.4-4.3,13.7-13.1c0.8-23.6-0.5-47.5-0.7-71.1c-0.5-48.4-1-96.7-1.5-145.1
				c-0.1-11.9-0.2-23.9-0.4-35.8c0-4.4-2.1-15.3,2.4-18.3c2.3-1.5,6.1-1.2,8.6-1.3c3.3-0.2,6.6-0.3,9.9-0.5c24.2-1,48.3-1.3,72.5-1
				c5.1,0.1,11.7-0.8,16.5,1.5c5.6,2.8,4.2,11.2,4.2,16.4c0,12.3,0,24.6,0.1,37c0,24.3,0.1,48.6,0.1,72.9
				c0.1,54.6,0.2,109.3,0.3,163.9C284.8,436.3,289.8,436.3,289.8,433.1L289.8,433.1z"/>
		</g>
	</g>
	<g class="st3">
		<g>
			<path class="st4" d="M29,401.9c-0.1-44.5,0.6-89,1.4-133.5c0.3-21.4,0.7-42.8,0.9-64.2c0.1-11.7,0.2-23.5,0.2-35.2
				c0-5.7,0.2-11.5,0-17.2c-0.1-4.1-0.8-8.3-3.9-11.3c-6.4-6-18.8-4.1-26.7-4.2c-12.3-0.1-24.5-0.1-36.8,0.1
				c-12.6,0.2-25.2,0.6-37.7,1.2c-8.2,0.4-17.5,0.2-18.9,10.3c-0.7,5.4-0.2,11-0.1,16.4c0.1,6.6,0.1,13.3,0.2,19.9
				c0.1,12.3,0.2,24.5,0.4,36.8c0.3,24.8,0.5,49.7,0.8,74.5c0.3,27.8,0.6,55.7,0.8,83.5c0.1,7.3,0.1,14.6,0.2,21.9
				c0.1,5.4,2.3,17.4-3,20.5c-2.8,1.7-7.1,1-10.3,1c-3.3,0-6.5,0-9.8-0.1c-7.2,0-14.4-0.1-21.6-0.1c-3.2,0-3.2,5,0,5
				c12,0.1,24.1,0.4,36.1,0.2c8.7-0.1,13.4-4.3,13.7-13.1c0.8-23.6-0.5-47.5-0.7-71.1c-0.5-48.4-1-96.7-1.5-145.1
				c-0.1-11.9-0.2-23.9-0.4-35.8c0-4.4-2.1-15.3,2.4-18.3c2.3-1.5,6.1-1.2,8.6-1.3c3.3-0.2,6.6-0.3,9.9-0.5c24.2-1,48.3-1.3,72.5-1
				c5.1,0.1,11.7-0.8,16.5,1.5c5.6,2.8,4.2,11.2,4.2,16.3c0,11.7,0,23.4-0.1,35c-0.1,21.1-0.4,42.2-0.8,63.3
				c-0.8,48.1-1.6,96.2-1.5,144.3C24,405.2,29,405.2,29,401.9L29,401.9z"/>
		</g>
	</g>
	<g class="st3">
		<g>
			<path class="st4" d="M130.3,423c-1.5-71.8-3-143.6,0.1-215.3c0.8-18.1,1.8-36.1,3.3-54.2c0.7-8.9,1.5-17.7,2.4-26.5
				c0.7-7.4,1.4-14.9,3.6-22c2.1-6.8,5.8-13.2,12.4-16.2c7.5-3.5,16.4-2.3,24.4-1.8c18.1,1.1,36.2,2.3,54.4,3.4
				c40.5,2.5,81.1,5.1,121.6,7.6c-0.8-0.8-1.7-1.7-2.5-2.5c-6.5,70-11.2,140.2-13.9,210.4c-0.6,14.6-1,29.1-2.2,43.6
				c-0.8,9.5-1.4,21.7,6.6,28.6c7,6.1,18.5,5.8,27.2,5.6c10.7-0.2,21.3-1.8,32-1.7c39.8,0.2,79.5-0.5,119.2-2.1c3.2-0.1,3.2-5.1,0-5
				c-33.4,1.3-66.9,2-100.4,2.1c-12.4,0-24.6,0-37,0.9c-10.4,0.8-22.1,2.2-32.3-0.8c-11.5-3.4-11.3-16.4-10.5-26.3
				c1.1-13.7,1.7-27.2,2.2-41c1.3-33.5,2.9-66.9,5.1-100.3c2.4-38.1,5.4-76.1,9-114c0.1-1.4-1.3-2.4-2.5-2.5
				c-37.6-2.4-75.1-4.7-112.7-7.1c-18.8-1.2-37.6-2.4-56.3-3.5c-14.1-0.9-31.4-4-41.8,8.1c-8.7,10.1-9.5,24.8-10.7,37.5
				c-1.9,18.7-3.3,37.4-4.4,56.1c-2.2,37.5-2.9,75-3,112.5c0,42.2,0.8,84.3,1.7,126.5C125.4,426.2,130.4,426.2,130.3,423L130.3,423z
				"/>
		</g>
	</g>
	<g class="st3">
		<g>
			<path class="st4" d="M-134.2,423c-1.5-71.8-3-143.6,0.1-215.3c0.8-18.1,1.8-36.1,3.3-54.2c0.7-8.9,1.5-17.7,2.4-26.5
				c0.7-7.4,1.4-14.9,3.6-22c2.1-6.8,5.8-13.2,12.4-16.2c7.5-3.5,16.4-2.3,24.4-1.8c18.1,1.1,36.2,2.3,54.4,3.4
				c40.5,2.5,81.1,5.1,121.6,7.6c-0.8-0.8-1.7-1.7-2.5-2.5c-5.2,55.5-9.2,111-11.9,166.7c-0.7,13.6-1.3,27.2-1.8,40.7
				c-0.5,12.4-0.4,24.9-1.4,37.3c-0.7,8.6-2.3,17.4-0.7,26c0.6,3.4,1.9,6.8,4,9.5c0.6,0.8,2.6,3.4,3.7,3.6c0.1,0,0.5,0.5,0.5,0.5
				c-0.6,0.3-0.5-0.3,0.3-1.8c0.2-0.1,0.1-0.1-0.2,0.1c-0.5-0.3-4.8,0.7-5.6,0.7c-2.8,0.1-5.6,0-8.3-0.1c-2.7-0.1-5.4-0.3-8.1-0.6
				c-0.9-0.1-1.8-0.3-2.6-0.3c-1.1,0-1.5-0.9-0.5,0.2c0.2,0.8,0.4,1.6,0.6,2.4c-0.8,2-2,0.9-1.2,1.7c0.8,0.7,4.6,0,5.9,0
				c5.3,0,10.6,0,15.9,0c11.3,0,22.5-0.1,33.8-0.3c22.2-0.3,44.4-0.9,66.6-1.8c3.2-0.1,3.2-5.1,0-5c-24.8,1-49.7,1.6-74.5,1.9
				c-12.3,0.1-24.5,0.2-36.8,0.2c-3.7,0-7.8-0.6-11.5,0c-1.4,0.2-2.4,0.4-3,2c-0.3,0.8,0.1,1.8,0.6,2.4c1.8,2.1,7.3,1.7,9.8,1.9
				c5.2,0.4,10.6,0.8,15.8,0.3c2.8-0.3,7.9-0.8,7.8-4.6c0-2.1-1.8-3.1-3.2-4.3c-4.1-3.6-5.3-8.8-5.5-14c-0.5-9.6,1.4-19.2,1.7-28.8
				c0.5-15.2,1.1-30.5,1.7-45.7c1.3-29.8,2.9-59.6,4.9-89.4c2.3-33.7,5-67.5,8.1-101.1c0.1-1.4-1.3-2.4-2.5-2.5
				c-37.6-2.4-75.1-4.7-112.7-7.1c-18.8-1.2-37.6-2.4-56.3-3.5c-14.1-0.9-31.4-4-41.8,8.1c-8.7,10.1-9.5,24.8-10.7,37.5
				c-1.9,18.7-3.3,37.4-4.4,56.1c-2.2,37.5-2.9,75-3,112.5c0,42.2,0.8,84.3,1.7,126.5C-139.2,426.2-134.2,426.2-134.2,423
				L-134.2,423z"/>
		</g>
	</g>
	<g class="st3">
		<g>
			<path class="st4" d="M-105,461.5c11.3,0,22.5-0.1,33.8-0.1c7.1,0,14.4-0.7,16.8-8.5c1.2-3.8,1-8,1.1-11.9
				c0.2-5.9,0.4-11.9,0.6-17.8c0.3-10.9,0.5-21.8,0.6-32.7c0.4-44.3-0.9-88.6-3.9-132.8c-1.7-25.1-3.9-50.1-6.7-75.1
				c-0.6,0.8-1.2,1.6-1.8,2.4c21.4-4,43.9-4.7,65.6-2.9c-0.8-0.8-1.7-1.7-2.5-2.5c-3.8,55.2-1.2,110.6-2.2,165.9
				c-0.2,13.4-0.7,26.8-1.8,40.1c0.6-0.8,1.2-1.6,1.8-2.4c-5,0.7-9.7,2-14.6,3.1c-5.4,1.2-10.7,1-16.2,0.3c-1.5-0.2-3.3,0.6-3.2,2.4
				c0.6,12,0.7,24.1,1.2,36.1c0.3,8.2,0.6,16.5,1.2,24.7c0.3,4.3-0.1,10,1.5,14c1.8,4.5,8.7,2.7,12.4,2.2c8.2-1.1,16.3-3,24.5-4.5
				c4.2-0.7,8.4-0.3,12.7-0.2c8.6,0.3,17.3,0.6,25.9,0.8c16.6,0.5,33.2,0.8,49.8,1.1c38.2,0.6,76.4,0.5,114.6-0.2
				c1.4,0,2.5-1.1,2.5-2.5c0.7-74-1.8-148-7.6-221.8c-1.7-21.1-3.6-42.1-5.8-63.2c-0.8,0.8-1.7,1.7-2.5,2.5
				c10.3,0.2,20.4,1.6,30.4,4.1c4.4,1.1,8.9,2.3,13,4.2c6.5,3,5,9.2,4.3,15.1c-2.4,20.5-4.3,41.1-5.8,61.8c-3,41.6-4.2,83.3-3.7,125
				c0.3,23.6,1.2,47.3,2.6,70.9c0.1,1.5,1.1,2.3,2.5,2.5c55.9,7,112.5,8.2,168.7,3.5c3.2-0.3,3.2-5.3,0-5
				c-56.2,4.7-112.7,3.5-168.7-3.5c0.8,0.8,1.7,1.7,2.5,2.5c-2.7-44.6-3.4-89.2-2.1-133.9c0.7-22.3,1.8-44.6,3.5-66.9
				c0.9-11.5,1.9-22.9,3-34.3c0.5-5.2,1.1-10.5,1.6-15.7c0.6-5.2,1.9-10.9,1.4-16.2c-0.9-9.6-11.3-11.9-19-14
				c-11.2-3.1-22.8-4.7-34.4-5c-1.2,0-2.6,1.2-2.5,2.5c7.6,73.6,12.1,147.5,13.2,221.5c0.3,21.1,0.4,42.3,0.2,63.4
				c0.8-0.8,1.7-1.7,2.5-2.5c-64.5,1.2-128.9,0.6-193.3-1.8c-7.3-0.3-13.7,1-20.9,2.3c-7.2,1.4-14.3,2-21.5,3c1-0.1,0.2,1.7,0.4,0.3
				c0.1-0.5-0.3-1.5-0.3-2c-0.4-2.5-0.5-5.1-0.7-7.7c-0.5-7.5-0.9-15-1.2-22.5c-0.5-13.6-0.6-27.2-1.3-40.8
				c-1.1,0.8-2.1,1.6-3.2,2.4c5.6,0.8,11.1,1.2,16.8,0.2c5.6-1,11-2.7,16.6-3.5c1.1-0.2,1.8-1.4,1.8-2.4
				c4.3-53.4,1.3-107.3,2.2-160.9c0.3-15.1,0.7-30.1,1.8-45.2c0.1-1.4-1.2-2.4-2.5-2.5c-22.2-1.8-45.1-1-66.9,3.1
				c-1,0.2-1.9,1.4-1.8,2.4c9.1,81.8,12.4,164.2,9.8,246.5c-0.2,5.8-0.3,11.7-0.6,17.6c-0.2,3-0.4,6.6-3.2,8.4
				c-2.1,1.4-5.1,1.3-7.5,1.3c-11.9,0.2-23.8,0.1-35.7,0.1C-108.2,456.6-108.2,461.6-105,461.5L-105,461.5z"/>
		</g>
	</g>
</g>
<g id="Layer_4" class="st0">
	<rect x="734" y="33" class="st2" width="32" height="32"/>
	<rect x="670" y="33" class="st2" width="32" height="32"/>
	<rect x="702" y="33" class="st2" width="32" height="32"/>
	<rect x="638" y="33" class="st2" width="32" height="32"/>
	<rect x="670" y="161" class="st2" width="32" height="32"/>
	<rect x="702" y="161" class="st2" width="32" height="32"/>
	<rect x="638" y="161" class="st2" width="32" height="32"/>
	<rect x="670" y="97" class="st2" width="32" height="32"/>
	<rect x="638" y="97" class="st2" width="32" height="32"/>
	<rect x="702" y="97" class="st2" width="32" height="32"/>
	<rect x="766" y="385" class="st2" width="32" height="32"/>
	<rect x="766" y="353" class="st2" width="32" height="32"/>
	<rect x="766" y="321" class="st2" width="32" height="32"/>
	<rect x="766" y="289" class="st2" width="32" height="32"/>
	<rect x="766" y="257" class="st2" width="32" height="32"/>
	<rect x="766" y="225" class="st2" width="32" height="32"/>
	<rect x="766" y="193" class="st2" width="32" height="32"/>
	<rect x="638" y="385" class="st2" width="32" height="32"/>
	<rect x="638" y="353" class="st2" width="32" height="32"/>
	<rect x="638" y="321" class="st2" width="32" height="32"/>
	<rect x="638" y="289" class="st2" width="32" height="32"/>
	<rect x="638" y="257" class="st2" width="32" height="32"/>
	<rect x="638" y="225" class="st2" width="32" height="32"/>
	<rect x="638" y="193" class="st2" width="32" height="32"/>
	<rect x="542" y="161" class="st2" width="32" height="32"/>
	<rect x="574" y="161" class="st2" width="32" height="32"/>
	<rect x="574" y="385" class="st2" width="32" height="32"/>
	<rect x="574" y="353" class="st2" width="32" height="32"/>
	<rect x="574" y="321" class="st2" width="32" height="32"/>
	<rect x="574" y="289" class="st2" width="32" height="32"/>
	<rect x="574" y="257" class="st2" width="32" height="32"/>
	<rect x="574" y="225" class="st2" width="32" height="32"/>
	<rect x="574" y="193" class="st2" width="32" height="32"/>
	<rect x="702" y="129" class="st2" width="32" height="32"/>
	<rect x="766" y="161" class="st2" width="32" height="32"/>
	<rect x="766" y="129" class="st2" width="32" height="32"/>
	<rect x="766" y="97" class="st2" width="32" height="32"/>
	<rect x="318" y="385" class="st2" width="32" height="32"/>
	<rect x="318" y="353" class="st2" width="32" height="32"/>
	<rect x="318" y="321" class="st2" width="32" height="32"/>
	<rect x="318" y="289" class="st2" width="32" height="32"/>
	<rect x="318" y="257" class="st2" width="32" height="32"/>
	<rect x="318" y="225" class="st2" width="32" height="32"/>
	<rect x="318" y="193" class="st2" width="32" height="32"/>
	<rect x="318" y="161" class="st2" width="32" height="32"/>
	<rect x="318" y="129" class="st2" width="32" height="32"/>
	<rect x="318" y="97" class="st2" width="32" height="32"/>
	<rect x="446" y="385" class="st2" width="32" height="32"/>
	<rect x="446" y="353" class="st2" width="32" height="32"/>
	<rect x="446" y="321" class="st2" width="32" height="32"/>
	<rect x="446" y="289" class="st2" width="32" height="32"/>
	<rect x="446" y="257" class="st2" width="32" height="32"/>
	<rect x="446" y="225" class="st2" width="32" height="32"/>
	<rect x="446" y="193" class="st2" width="32" height="32"/>
	<rect x="446" y="161" class="st2" width="32" height="32"/>
	<rect x="446" y="129" class="st2" width="32" height="32"/>
	<rect x="350" y="97" class="st2" width="32" height="32"/>
	<rect x="382.7" y="97" class="st2" width="32" height="32"/>
	<rect x="414.7" y="97" class="st2" width="32" height="32"/>
	<rect x="766" y="65" class="st2" width="32" height="32"/>
	<rect x="766" y="33" class="st2" width="32" height="32"/>
	<rect x="606" y="97" class="st2" width="32" height="32"/>
	<rect x="574" y="97" class="st2" width="32" height="32"/>
	<rect x="542" y="97" class="st2" width="32" height="32"/>
	<rect x="510" y="97" class="st2" width="32" height="32"/>
	<rect x="510" y="161" class="st2" width="32" height="32"/>
	<rect x="510" y="129" class="st2" width="32" height="32"/>
	<rect x="606" y="33" class="st2" width="32" height="32"/>
	<rect x="574" y="33" class="st2" width="32" height="32"/>
	<rect x="542" y="33" class="st2" width="32" height="32"/>
	<rect x="510" y="33" class="st2" width="32" height="32"/>
	<rect x="478" y="33" class="st2" width="32" height="32"/>
	<rect x="446" y="33" class="st2" width="32" height="32"/>
	<rect x="414" y="33" class="st2" width="32" height="32"/>
	<rect x="382" y="33" class="st2" width="32" height="32"/>
	<rect x="350" y="33" class="st2" width="32" height="32"/>
	<rect x="318" y="33" class="st2" width="32" height="32"/>
	<rect x="286" y="33" class="st2" width="32" height="32"/>
	<rect x="254" y="33" class="st2" width="32" height="32"/>
	<rect x="222" y="33" class="st2" width="32" height="32"/>
	<rect x="190" y="33" class="st2" width="32" height="32"/>
	<rect x="158" y="33" class="st2" width="32" height="32"/>
	<rect x="126" y="33" class="st2" width="32" height="32"/>
	<rect x="94" y="33" class="st2" width="32" height="32"/>
	<rect x="62" y="33" class="st2" width="32" height="32"/>
	<rect x="30" y="33" class="st2" width="32" height="32"/>
	<rect x="-2" y="33" class="st2" width="32" height="32"/>
</g>
<g id="Layer_5" class="st0">
	<rect x="734" y="33" class="st2" width="32" height="32"/>
	<rect x="670" y="33" class="st2" width="32" height="32"/>
	<rect x="702" y="33" class="st2" width="32" height="32"/>
	<rect x="638" y="33" class="st2" width="32" height="32"/>
	<rect x="222" y="353" class="st2" width="32" height="32"/>
	<rect x="222" y="385" class="st2" width="32" height="32"/>
	<rect x="222" y="321" class="st2" width="32" height="32"/>
	<rect x="222" y="289" class="st2" width="32" height="32"/>
	<rect x="222" y="257" class="st2" width="32" height="32"/>
	<rect x="222" y="225" class="st2" width="32" height="32"/>
	<rect x="222" y="193" class="st2" width="32" height="32"/>
	<rect x="222" y="161" class="st2" width="32" height="32"/>
	<rect x="222" y="129" class="st2" width="32" height="32"/>
	<rect x="606" y="33" class="st2" width="32" height="32"/>
	<rect x="606" y="129" class="st2" width="32" height="32"/>
	<rect x="606" y="97" class="st2" width="32" height="32"/>
	<rect x="606" y="161" class="st2" width="32" height="32"/>
	<rect x="606" y="193" class="st2" width="32" height="32"/>
	<rect x="606" y="225" class="st2" width="32" height="32"/>
	<rect x="606" y="289" class="st2" width="32" height="32"/>
	<rect x="606" y="257" class="st2" width="32" height="32"/>
	<rect x="606" y="321" class="st2" width="32" height="32"/>
	<rect x="542" y="129" class="st2" width="32" height="32"/>
	<rect x="542" y="97" class="st2" width="32" height="32"/>
	<rect x="542" y="161" class="st2" width="32" height="32"/>
	<rect x="542" y="225" class="st2" width="32" height="32"/>
	<rect x="542" y="289" class="st2" width="32" height="32"/>
	<rect x="542" y="257" class="st2" width="32" height="32"/>
	<rect x="542" y="321" class="st2" width="32" height="32"/>
	<rect x="638" y="161" class="st2" width="32" height="32"/>
	<rect x="670" y="161" class="st2" width="32" height="32"/>
	<rect x="702" y="161" class="st2" width="32" height="32"/>
	<rect x="446" y="161" class="st2" width="32" height="32"/>
	<rect x="478" y="161" class="st2" width="32" height="32"/>
	<rect x="510" y="161" class="st2" width="32" height="32"/>
	<rect x="638" y="321" class="st2" width="32" height="32"/>
	<rect x="670" y="321" class="st2" width="32" height="32"/>
	<rect x="446" y="193" class="st2" width="32" height="32"/>
	<rect x="446" y="225" class="st2" width="32" height="32"/>
	<rect x="446" y="289" class="st2" width="32" height="32"/>
	<rect x="446" y="257" class="st2" width="32" height="32"/>
	<rect x="446" y="321" class="st2" width="32" height="32"/>
	<rect x="478" y="321" class="st2" width="32" height="32"/>
	<rect x="510" y="321" class="st2" width="32" height="32"/>
	<rect x="382" y="129" class="st2" width="32" height="32"/>
	<rect x="382" y="97" class="st2" width="32" height="32"/>
	<rect x="382" y="161" class="st2" width="32" height="32"/>
	<rect x="382" y="225" class="st2" width="32" height="32"/>
	<rect x="542" y="193" class="st2" width="32" height="32"/>
	<rect x="382" y="193" class="st2" width="32" height="32"/>
	<rect x="382" y="289" class="st2" width="32" height="32"/>
	<rect x="382" y="257" class="st2" width="32" height="32"/>
	<rect x="382" y="321" class="st2" width="32" height="32"/>
	<rect x="286" y="161" class="st2" width="32" height="32"/>
	<rect x="318" y="161" class="st2" width="32" height="32"/>
	<rect x="350" y="161" class="st2" width="32" height="32"/>
	<rect x="286" y="193" class="st2" width="32" height="32"/>
	<rect x="286" y="225" class="st2" width="32" height="32"/>
	<rect x="286" y="289" class="st2" width="32" height="32"/>
	<rect x="286" y="257" class="st2" width="32" height="32"/>
	<rect x="286" y="321" class="st2" width="32" height="32"/>
	<rect x="318" y="321" class="st2" width="32" height="32"/>
	<rect x="350" y="321" class="st2" width="32" height="32"/>
	<rect x="702" y="321" class="st2" width="32" height="32"/>
	<rect x="702" y="289" class="st2" width="32" height="32"/>
	<rect x="766" y="1" class="st2" width="32" height="32"/>
	<rect x="542" y="33" class="st2" width="32" height="32"/>
	<rect x="542" y="1" class="st2" width="32" height="32"/>
	<rect x="510" y="33" class="st2" width="32" height="32"/>
	<rect x="478" y="33" class="st2" width="32" height="32"/>
	<rect x="446" y="33" class="st2" width="32" height="32"/>
	<rect x="222" y="1" class="st2" width="32" height="32"/>
	<rect x="382" y="33" class="st2" width="32" height="32"/>
	<rect x="350" y="33" class="st2" width="32" height="32"/>
	<rect x="318" y="33" class="st2" width="32" height="32"/>
	<rect x="286" y="33" class="st2" width="32" height="32"/>
	<rect x="254" y="33" class="st2" width="32" height="32"/>
	<rect x="222" y="33" class="st2" width="32" height="32"/>
	<rect x="766" y="385" class="st2" width="32" height="32"/>
	<rect x="766" y="321" class="st2" width="32" height="32"/>
	<rect x="766" y="289" class="st2" width="32" height="32"/>
	<rect x="766" y="257" class="st2" width="32" height="32"/>
	<rect x="766" y="225" class="st2" width="32" height="32"/>
	<rect x="766" y="193" class="st2" width="32" height="32"/>
	<rect x="766" y="161" class="st2" width="32" height="32"/>
	<rect x="766" y="129" class="st2" width="32" height="32"/>
	<rect x="766" y="65" class="st2" width="32" height="32"/>
	<rect x="222" y="97" class="st2" width="32" height="32"/>
	<rect x="766" y="97" class="st2" width="32" height="32"/>
	<rect x="766" y="33" class="st2" width="32" height="32"/>
	<rect x="734" y="385" class="st2" width="32" height="32"/>
	<rect x="702" y="385" class="st2" width="32" height="32"/>
	<rect x="670" y="385" class="st2" width="32" height="32"/>
	<rect x="638" y="385" class="st2" width="32" height="32"/>
	<rect x="606" y="385" class="st2" width="32" height="32"/>
	<rect x="542" y="385" class="st2" width="32" height="32"/>
	<rect x="510" y="385" class="st2" width="32" height="32"/>
	<rect x="478" y="385" class="st2" width="32" height="32"/>
	<rect x="446" y="385" class="st2" width="32" height="32"/>
	<rect x="414" y="385" class="st2" width="32" height="32"/>
	<rect x="382" y="385" class="st2" width="32" height="32"/>
	<rect x="350" y="385" class="st2" width="32" height="32"/>
	<rect x="318" y="385" class="st2" width="32" height="32"/>
	<rect x="286" y="385" class="st2" width="32" height="32"/>
	<rect x="222" y="-31" class="st2" width="32" height="32"/>
	<rect x="766" y="-31" class="st2" width="32" height="32"/>
	<rect x="734" y="-31" class="st2" width="32" height="32"/>
	<rect x="702" y="-31" class="st2" width="32" height="32"/>
	<rect x="670" y="-31" class="st2" width="32" height="32"/>
	<rect x="638" y="-31" class="st2" width="32" height="32"/>
	<rect x="606" y="-31" class="st2" width="32" height="32"/>
	<rect x="574" y="-31" class="st2" width="32" height="32"/>
	<rect x="542" y="-31" class="st2" width="32" height="32"/>
	<rect x="478" y="-31" class="st2" width="32" height="32"/>
	<rect x="446" y="-31" class="st2" width="32" height="32"/>
	<rect x="414" y="-31" class="st2" width="32" height="32"/>
	<rect x="382" y="-31" class="st2" width="32" height="32"/>
	<rect x="350" y="-31" class="st2" width="32" height="32"/>
	<rect x="318" y="-31" class="st2" width="32" height="32"/>
	<rect x="286" y="-31" class="st2" width="32" height="32"/>
	<rect x="254" y="-31" class="st2" width="32" height="32"/>
</g>
<g id="Layer_6" class="st0">
	<rect x="318" y="97" class="st2" width="32" height="32"/>
	<rect x="286" y="97" class="st2" width="32" height="32"/>
	<rect x="254" y="97" class="st2" width="32" height="32"/>
	<rect x="478" y="97" class="st2" width="32" height="32"/>
	<rect x="446" y="97" class="st2" width="32" height="32"/>
	<rect x="446" y="65" class="st2" width="32" height="32"/>
	<rect x="702" y="97" class="st2" width="32" height="32"/>
	<rect x="734" y="97" class="st2" width="32" height="32"/>
	<rect x="670" y="97" class="st2" width="32" height="32"/>
	<rect x="734" y="225" class="st2" width="32" height="32"/>
	<rect x="702" y="225" class="st2" width="32" height="32"/>
	<rect x="670" y="225" class="st2" width="32" height="32"/>
</g>
<g id="Layer_10" class="st0">
</g>
<g id="Layer_7">
	<polygon class="st5" points="400,80 400,160 320,160 320,240 320,320 400,320 400,240 480,240 480,160 480,80 	"/>
	<polygon class="st5" points="160,80 160,160 80,160 80,240 80,320 160,320 160,240 240,240 240,160 240,80 	"/>
	<polygon points="240,160 240,240 160,240 	"/>
	<polygon points="480,160 480,240 400,240 	"/>
	<polygon points="160,240 160,320 80,320 	"/>
	<polygon points="400,240 400,320 320,320 	"/>
	<polygon class="st5" points="640,160 640,80 560,80 560,160 560,240 560,320 640,320 640,240 720,240 720,160 	"/>
	<polygon class="st6" points="320,240 320,160 400,160 	"/>
	<polygon class="st6" points="560,160 560,80 640,80 	"/>
	<polygon class="st6" points="80,240 80,160 160,160 	"/>
	<polygon class="st6" points="400,160 400,80 480,80 	"/>
	<polygon class="st6" points="160,160 160,80 240,80 	"/>
	<polygon points="640,240 640,320 560,320 	"/>
	<polygon points="720,160 720,240 640,240 	"/>
</g>
<g id="Layer_8" class="st0">
	<rect x="-112" y="-312" class="st3" width="1024" height="1024"/>
</g>
<g id="Layer_9" class="st0">
	<rect x="80" y="160" class="st7" width="80" height="80"/>
	<rect x="160" y="160" class="st7" width="80" height="80"/>
	<rect x="160" y="80" class="st7" width="80" height="80"/>
	<rect x="320" y="160" class="st7" width="80" height="80"/>
	<rect x="80" y="240" class="st7" width="80" height="80"/>
	<rect x="320" y="240" class="st7" width="80" height="80"/>
	<rect x="400" y="160" class="st7" width="80" height="80"/>
	<polygon class="st8" points="240,160 240,240 160,240 	"/>
	<polygon class="st8" points="480,160 480,240 400,240 	"/>
	<polygon class="st8" points="160,240 160,320 80,320 	"/>
	<polygon class="st8" points="400,240 400,320 320,320 	"/>
	<rect x="400" y="80" class="st7" width="80" height="80"/>
	<rect x="640" y="160" class="st7" width="80" height="80"/>
	<rect x="560" y="160" class="st7" width="80" height="80"/>
	<rect x="560" y="80" class="st7" width="80" height="80"/>
	<rect x="560" y="240" class="st7" width="80" height="80"/>
	<polygon class="st9" points="320,240 320,160 400,160 	"/>
	<polygon class="st9" points="560,160 560,80 640,80 	"/>
	<polygon class="st9" points="80,240 80,160 160,160 	"/>
	<polygon class="st9" points="400,160 400,80 480,80 	"/>
	<polygon class="st9" points="160,160 160,80 240,80 	"/>
	<polygon class="st8" points="640,240 640,320 560,320 	"/>
	<polygon class="st8" points="720,160 720,240 640,240 	"/>
</g>
</svg>
