<svg id="Layer_1" data-name="Layer 1" xmlns="http://www.w3.org/2000/svg" viewBox="0 0 1046.75 264.04"><defs><style>.cls-1{fill:#c2bfbf;}.cls-2{fill:#599636;}.cls-3{fill:#69b240;}.cls-4{fill:#47474a;}</style></defs><title>MongoDB-Logo-Reg</title><path class="cls-1" d="M59.85,197.74c-1.36,17.35-3.32,30-5.25,34.43l-0.76-.54c4.84,11.27,4.36,30.55,4.36,30.55l7.07,2.35s-1.44-18.71.57-27.75a17.27,17.27,0,0,1,3.65-7.14l-0.4.28C62.16,226.72,60.15,211.72,59.85,197.74Z" transform="translate(-0.12 -0.48)"/><path class="cls-2" d="M116.15,105.2C102.28,44,69.54,23.94,66,16.26,62.15,10.83,58.25,1.2,58.25,1.2V1.34C61.53,14,61,116.28,61.35,128.53a660.82,660.82,0,0,1-1.5,69.21c0.3,14,2.31,29,9.24,32.17l0.4-.28a87.67,87.67,0,0,0,8.63-7.05l0.3-.28C95,207,127,168.38,116.15,105.2Z" transform="translate(-0.12 -0.48)"/><path class="cls-3" d="M59.85,197.74a660.82,660.82,0,0,0,1.5-69.21C61,116.28,61.53,14,58.25,1.34A5.35,5.35,0,0,0,58,.48c-0.4,5.4-.61,7.51-5.74,13C44.3,19.66,3.58,53.82.26,123.31-2.83,188.09,47.07,226.7,53.84,231.63l0.76,0.54C56.53,227.75,58.49,215.09,59.85,197.74Z" transform="translate(-0.12 -0.48)"/><path class="cls-1" d="M794.81,199c4.29,3.44,12.88,4.85,20.45,4.85,9.81,0,19.42-1.82,28.83-10.31,9.61-8.7,16.15-22,16.15-43.27,0-20.42-7.77-37-23.72-46.71-9-5.66-20.65-7.88-33.94-7.88-3.89,0-7.77.2-10,1.21a5.3,5.3,0,0,0-1.84,2.83c-0.41,3.64-.41,31.34-0.41,47.71,0,16.78,0,40.23.41,43.07,0.21,2.42,1.43,6.67,4.09,8.49M754,86.6c3.47,0,16.68.61,22.82,0.61,11.45,0,19.42-.61,40.89-0.61,18,0,33.13,4.85,44,14.15,13.09,11.32,20,27.09,20,46.3,0,27.3-12.47,43.07-24.94,52-12.47,9.3-28.63,14.56-51.73,14.56-12.27,0-33.33-.4-50.92-0.6h-0.24c-0.82-1.62,1.51-7.93,2.95-8.09,4.75-.54,6-0.72,8.25-1.63,3.71-1.53,4.59-3.42,5-10.1,0.61-12.53.41-27.5,0.41-44.48,0-12.13.2-35.79-.21-43.27-0.61-6.27-3.27-7.88-8.59-9.1a114,114,0,0,0-11.45-1.82c-0.41-1.21,2.74-6.67,3.76-7.89" transform="translate(-0.12 -0.48)"/><path class="cls-1" d="M932.44,96.86c-0.82.2-1.84,2.23-1.84,3.24-0.2,7.28-.41,26.28-0.41,39.42a1.3,1.3,0,0,0,1,1c2.66,0.2,9.2.41,14.72,0.41,7.77,0,12.27-1,14.72-2.23,6.54-3.23,9.61-10.31,9.61-18,0-17.59-12.27-24.26-30.46-24.26a54.48,54.48,0,0,0-7.36.41m46.42,80.88c0-17.79-13.09-27.9-37-27.9-1,0-8.59-.21-10.43.2a1.6,1.6,0,0,0-1.23,1c0,12.74-.21,33.16.41,41.25,0.41,3.44,2.87,8.29,5.93,9.71,3.27,1.82,10.63,2.23,15.74,2.23,14.11,0,26.58-7.89,26.58-26.49M895.51,87c1.84,0,7.28.61,21.18,0.61,13.09,0,23.72-.4,36.4-0.4,15.74,0,37.42,5.66,37.42,29.11,0,11.52-8.18,20.83-18.81,25.27-0.62.2-.62,0.61,0,0.81,15.13,3.84,28.42,13.14,28.42,30.93,0,17.39-10.84,28.31-26.58,35.18-9.61,4.24-21.47,5.66-33.54,5.66-9.2,0-33.86-1-47.56-.81-1.43-.61,1.31-7.08,2.53-8.09a38.36,38.36,0,0,0,9.28-1.45c4.9-1.21,5.49-2.8,6.1-10.08,0.41-6.27.41-28.71,0.41-44.68,0-21.84.2-36.6,0-43.87-0.21-5.66-2.25-7.48-6.14-8.49-3.06-.61-8.17-1.21-12.26-1.82-1-1,2.12-7.08,3.15-7.89" transform="translate(-0.12 -0.48)"/><path class="cls-4" d="M162.13,213.48a8.77,8.77,0,0,1-.63-4.09,5.19,5.19,0,0,1,.62-2.73,67.56,67.56,0,0,0,7.85-1.6c3.62-.9,5-2.85,5.19-7.48,0.59-10.9.63-31.35,0.41-45.73v-0.42c0-1.54,0-3.65-1.89-5.14a40.93,40.93,0,0,0-10.85-4.76c-1.71-.51-2.66-1.41-2.61-2.46s1.13-2.3,3.36-2.73c5.92-.61,21.44-4.31,27.54-7.12a4,4,0,0,1,.82,2.91c0,0.64-.1,1.3-0.16,2-0.17,2-.37,4.34-0.37,6.63a1.5,1.5,0,0,0,1.51,1.32,1.48,1.48,0,0,0,1.06-.45c11.61-9.1,22-12.34,27.34-12.34,8.78,0,15.62,4.2,20.9,12.83a1.42,1.42,0,0,0,1.19.7,1.35,1.35,0,0,0,1.11-.59c10.68-8.1,21.25-12.93,28.33-12.93,16.74,0,26.74,12.53,26.74,33.52,0,6-.06,13.67-0.11,20.81-0.05,6.26-.1,12.13-0.1,16.19,0,1,1.31,3.71,3.3,4.26,2.45,1.19,6,1.8,10.45,2.57l0.17,0c0.34,1.2-.37,5.88-1.05,6.84-1.11,0-2.64-.09-4.55-0.18-3.48-.18-8.24-0.42-13.78-0.42-11.12,0-16.93.22-22.48,0.58-0.42-1.39-.57-5.87-0.06-6.8a60,60,0,0,0,6.78-1.59c3.54-1.17,4.56-2.77,4.77-7.48,0.08-3.34.72-32.77-.42-39.76-1-7.24-6.51-15.72-18.44-15.72-4.43,0-11.58,1.84-18.4,7a2.72,2.72,0,0,0-.67,1.74V151c0.8,3.77.8,8.17,0.8,14.83,0,3.79,0,7.82,0,11.81,0,8.11-.09,15.78,0,21.56,0,3.94,2.39,4.89,4.3,5.65,1,0.23,1.87.43,2.7,0.63,1.61,0.39,3.27.79,5.73,1.18a10.93,10.93,0,0,1-.1,5.09,4,4,0,0,1-.71,1.74c-6.19-.21-12.53-0.4-21.69-0.4-2.78,0-7.31.12-11.31,0.23-3.24.09-6.31,0.17-8.05,0.18a8,8,0,0,1-.61-3.52,6.16,6.16,0,0,1,.64-3.3l2.46-.44c2.15-.38,4-0.71,5.78-1.15,3-.93,4.17-2.61,4.39-6.46,0.59-9,1.05-34.92-.22-41.41-2.17-10.42-8.1-15.7-17.62-15.7-5.58,0-12.63,2.69-18.39,7a5.58,5.58,0,0,0-1.7,4.16c0,3.09,0,6.76,0,10.7,0,13-.09,29.22.23,36.24,0.19,2.15.94,4.72,5,5.67,0.89,0.25,2.42.51,4.2,0.8,1,0.17,2.14.36,3.3,0.56a14.49,14.49,0,0,1-.55,6.84c-1.78,0-4-.11-6.47-0.22-3.83-.17-8.6-0.38-14-0.38-6.39,0-10.84.21-14.42,0.38-2.4.11-4.47,0.21-6.55,0.22" transform="translate(-0.12 -0.48)"/><path class="cls-4" d="M367.38,137.86a17.44,17.44,0,0,0-9.78,2.75c-7.1,4.32-10.71,12.94-10.71,25.61,0,23.72,11.88,40.29,28.88,40.29a18.17,18.17,0,0,0,12.5-4.41c5.22-4.26,8-13,8-25.16,0-23.37-11.61-39.07-28.88-39.07m3.27,77.44c-30.72,0-41.67-22.54-41.67-43.62,0-14.73,6-26.25,17.91-34.23a54.56,54.56,0,0,1,27.64-8.18c23.44,0,39.82,16.86,39.82,41,0,16.41-6.54,29.37-18.92,37.46-5.94,3.64-16.24,7.58-24.78,7.58" transform="translate(-0.12 -0.48)"/><path class="cls-4" d="M680.15,137.86a17.44,17.44,0,0,0-9.79,2.75c-7.1,4.32-10.71,12.94-10.71,25.61,0,23.72,11.87,40.29,28.88,40.29a18.15,18.15,0,0,0,12.5-4.41c5.22-4.26,8-13,8-25.16,0-23.37-11.6-39.07-28.88-39.07m3.27,77.44c-30.72,0-41.67-22.53-41.67-43.62,0-14.74,6-26.25,17.91-34.24a54.53,54.53,0,0,1,27.64-8.18c23.45,0,39.82,16.86,39.82,41,0,16.42-6.55,29.37-18.92,37.46-5.93,3.64-16.23,7.58-24.78,7.58" transform="translate(-0.12 -0.48)"/><path class="cls-4" d="M576.72,137.06c-9.47,0-15.59,7.48-15.59,19.05s5.26,25.32,20.09,25.32c2.55,0,7.16-1.13,9.45-3.65,3.45-3.17,5.69-9.71,5.69-16.62,0-15.1-7.35-24.11-19.64-24.11m-1.23,79.86a15.6,15.6,0,0,0-7.69,1.9c-7.5,4.8-11,9.61-11,15.13,0,5.21,2,9.35,6.37,13,5.26,4.46,12.36,6.63,21.7,6.63,18.36,0,26.59-9.87,26.59-19.66,0-6.81-3.42-11.38-10.45-14-5.42-2-14.47-3.08-25.55-3.08m1.23,46.91c-11,0-19-2.33-25.76-7.55-6.6-5.1-9.56-12.66-9.56-17.88A14,14,0,0,1,545,229.3c1.92-2.18,6.37-6.27,16.65-13.34a0.85,0.85,0,0,0,.54-0.81,0.84,0.84,0,0,0-.65-0.84c-8.47-3.24-11-8.57-11.8-11.46,0-.1,0-0.27-0.09-0.45-0.24-1.13-.47-2.2,1.06-3.31,1.19-.85,3.09-2,5.11-3.17a67.37,67.37,0,0,0,8.22-5.36,1.34,1.34,0,0,0-.34-2.1c-12.54-4.21-18.86-13.53-18.86-27.72A27.61,27.61,0,0,1,556.45,138c5-4,17.7-8.78,25.91-8.78h0.48c8.44,0.2,13.19,2,19.78,4.4a31.5,31.5,0,0,0,11.69,1.86c7,0,10-2.22,12.65-4.76a10.9,10.9,0,0,1,.67,3.62,13.64,13.64,0,0,1-2.27,8.31c-1.43,2-4.74,3.41-7.86,3.41a8.85,8.85,0,0,1-.92,0,25.91,25.91,0,0,1-4.74-.79l-0.79.27a1.32,1.32,0,0,0,.12,1.28,2.66,2.66,0,0,1,.12.32,56.36,56.36,0,0,1,1.14,7.75c0,14.88-5.87,21.37-12.21,26.17a41.7,41.7,0,0,1-21.1,8.16h0c-0.16,0-.92.07-2.44,0.2-1,.09-2.21.2-2.39,0.2l-0.18,0c-1.38.39-5,2.1-5,5.28,0,2.65,1.63,5.93,9.4,6.52l5,0.36c10.26,0.72,23.08,1.61,29.11,3.65a20.14,20.14,0,0,1,13.46,19.4c0,13.35-9.49,25.91-25.39,33.58a55.13,55.13,0,0,1-24,5.4" transform="translate(-0.12 -0.48)"/><path class="cls-4" d="M529.75,206.36c-4.5-.61-7.77-1.21-11.65-3a5.37,5.37,0,0,1-1.43-2.83c-0.41-6.27-.41-24.47-0.41-36.39,0-9.71-1.63-18.2-5.72-24.27-4.91-6.87-11.86-10.92-20.86-10.92-8,0-18.61,5.46-27.4,12.94-0.21.2-1.56,1.48-1.53-.51s0.34-6,.52-8.58a4.41,4.41,0,0,0-1.34-3.75c-5.73,2.83-21.85,6.66-27.8,7.28-4.35.84-5.45,5-.82,6.47h0l0.07,0a39.5,39.5,0,0,1,10.56,4.63c1.84,1.42,1.63,3.44,1.63,5.06,0.2,13.55.2,34.37-.41,45.7-0.2,4.45-1.43,6.06-4.7,6.87l0.3-.1a63.87,63.87,0,0,1-7.57,1.42c-1,1-1,6.87,0,8.09,2,0,12.47-.61,21.06-0.61,11.86,0,18,.61,21.06.61,1.23-1.42,1.64-6.88.82-8.09a43.43,43.43,0,0,1-8.39-1.21c-3.27-.81-4.09-2.43-4.29-6.06-0.41-9.5-.41-29.72-0.41-43.47,0-3.84,1-5.66,2.25-6.67,4.09-3.64,10.84-6.06,16.77-6.06a18.38,18.38,0,0,1,12.47,4.24,17.3,17.3,0,0,1,5.73,11.32c0.82,7.68.61,23,.61,36.39,0,7.28-.61,9.1-3.27,9.91-1.23.61-4.5,1.21-8.38,1.62-1.22,1.21-.82,6.87,0,8.09,5.32,0,11.45-.61,20.45-0.61,11.25,0,18.4.61,21.26,0.61,1.23-1.42,1.63-6.67.82-8.09" transform="translate(-0.12 -0.48)"/><path class="cls-1" d="M1031,213.48a15.88,15.88,0,1,1,15.88-16.1A15.69,15.69,0,0,1,1031,213.48Zm0-30.32a14.45,14.45,0,1,0,14.36,14.49A14.21,14.21,0,0,0,1031,183.16Zm3.88,24.48-4.1-8.83h-3.3v8.83h-2.41V187.57H1031c4.41,0,6.24,2,6.24,5.62,0,2.94-1.38,4.81-4,5.35l4.24,9.1h-2.63Zm-7.4-10.93H1031c2.81,0,3.88-1,3.88-3.52s-1-3.43-4.19-3.43h-3.17v7Z" transform="translate(-0.12 -0.48)"/></svg>